<svg xmlns="http://www.w3.org/2000/svg" version="1.1" xmlns:xlink="http://www.w3.org/1999/xlink" width="1500" height="1500" viewBox="0 0 1500 1500"><rect width="1500" height="1500" x="0" y="0" id="background" stroke="transparent" fill="#000000"></rect><svg xml:space="preserve" width="1000" height="1000" data-version="2" data-id="lg_sj22U6zx6ZtqI9MHYU" viewBox="0 0 459 518" x="250" y="250"><rect width="100%" height="100%" fill="transparent"></rect><rect width="529.29" height="529.29" x="-264.64" y="-264.64" fill="#8f8f8f" stroke="#8f8f8f" rx="0" ry="0" transform="translate(229.5 230.3)scale(.8491)"></rect><path fill="#000000" d="M229.488 166.655c53.498 0 96.866 43.368 96.866 96.866l1.2 195.284h97.218V263.521c0-107.85-87.434-195.284-195.284-195.284S34.204 155.671 34.204 263.521v195.284h98.53l-.112-195.284c0-53.498 43.368-96.866 96.866-96.866"></path><path fill="#8f8f8f" d="m95.58 511.675.03-.48 1.77-.23q.24-.04.41-.45l7.34-22.67h2.25l7.82 23.15 2.34.14q0 .03-.03.51l-6.8.03q0-.31.03-.48l1.77-.23q.27-.04.27-.41l-1.87-5.54H100.3l-1.8 5.91 3.95.21q0 .03-.04.51Zm9.79-23.19-4.86 15.85h10.16Z"></path><rect width="21.96" height="23.83" x="-10.98" y="-11.91" fill="none" rx="0" ry="0" transform="translate(107.06 500.26)"></rect><path fill="#8f8f8f" d="M130.87 487.535v22.34q0 1.05.54 1.05l2.04.1-.03.51q-1.63.28-3.4.28-.37-.04-.8-.38-.42-.34-.49-.88-1.94 1.22-4.49 1.22-2.48 0-4.59-1.39-1.19-.78-1.92-2.47-.73-1.68-.73-4.09 0-4.46 2.28-6.8 2.41-2.52 5.5-2.52 1.91 0 3.88.99v-8.13q0-.37-.2-.37l-2.08-.07.04-.48q2.14-.3 2.94-.3.8 0 1.15.44.36.44.36.95m-6.19 23.63q2.08 0 3.98-.92v-14.21q-1.5-.92-2.96-.92-2.92 0-4.71 2.25-1.78 2.24-1.78 6.42 0 7.38 5.47 7.38"></path><rect width="16.45" height="25.67" x="-8.22" y="-12.84" fill="none" rx="0" ry="0" transform="translate(125.72 499.48)"></rect><path fill="#8f8f8f" d="M144.37 495.285q-2.04.04-4.42 1.5v14.18l2.55.17q0 .03-.04.51l-6.8.03q0-.31.04-.48l1.77-.23q.2 0 .27-.31v-14.93q-.07-.23-.21-.23l-2.04-.07.04-.48q1.83-.3 2.79-.3.95 0 1.29.44.34.44.34.95v.41q2.82-1.77 5.17-1.91 3.23 0 4.38 1.84 2.96-1.7 5.58-1.84 2.38 0 3.6.99.58.44 1.01 1.38.42.93.42 2.22v11.84l2.55.17q0 .03-.03.51l-6.8.03q0-.31.03-.48l1.77-.23q.2 0 .27-.31v-10.68q0-1.36-.34-2.33-.34-.96-.75-1.41-.41-.44-1.02-.68-.68-.27-1.46-.27-2.11.04-4.59 1.6.44.95.44 2.24v11.84l2.55.17q0 .03-.03.51l-6.84.03.04-.48 1.77-.23q.23-.04.3-.34v-10.68q0-1.67-.44-2.74-.44-1.07-1.19-1.41-1.02-.51-1.97-.51"></path><rect width="27.17" height="17.14" x="-13.59" y="-8.57" fill="none" rx="0" ry="0" transform="translate(149.57 503.6)"></rect><path fill="#8f8f8f" d="M169.15 496.035v14.93l2.55.17q0 .03-.03.51l-6.8.03q0-.31.03-.48l1.77-.23q.21 0 .27-.31v-14.93q-.06-.23-.2-.23l-2.04-.07.03-.48q1.84-.3 2.79-.3t1.29.44q.34.44.34.95m-1.15-5.95h-.34q-.34 0-.72-.43-.37-.42-.37-1.12 0-.69.39-1.12.39-.42 1.07-.42t1.11.42q.42.43.42 1.16t-.44 1.12q-.44.39-1.12.39"></path><rect width="7" height="24.68" x="-3.5" y="-12.34" fill="none" rx="0" ry="0" transform="translate(168.7 499.83)"></rect><path fill="#8f8f8f" d="m173.91 511.675.04-.48 1.77-.23q.3-.04.3-.48v-14.72q-.07-.27-.2-.27l-2.08-.07.04-.48q2.14-.3 2.89-.3 1.36 0 1.53 1.19h.03v.71q2.79-1.9 5.34-2.01 2.48 0 3.77.99.58.44 1.04 1.38.46.93.46 2.22v11.84l2.55.17q0 .03-.03.51l-6.8.03q0-.31.03-.48l1.77-.23q.27-.04.27-.48v-10.51q0-1.36-.36-2.31-.35-.95-.8-1.39-.44-.44-1.08-.68-.75-.27-1.57-.27-2.04.03-4.59 1.59v14.05l2.55.17q0 .03-.03.51Z"></path><rect width="17.65" height="17.14" x="-8.82" y="-8.57" fill="none" rx="0" ry="0" transform="translate(183.06 503.6)"></rect><path fill="#8f8f8f" d="m205.19 488.355.04-.51h8.29q4.59 0 7.37 2.66 2.77 2.67 2.77 8.69 0 5.95-1.94 8.91-1.7 2.58-5.31 3.26-1.59.28-3.74.28h-.64l-6.84.03.04-.48 1.77-.23q.34-.04.4-.45v-21.48q-.06-.45-.4-.48Zm8.16 0h-3.63v22.78h2.78q1.64 0 2.78-.19 1.13-.19 2.38-.89 1.24-.69 1.95-1.92 1.73-2.89 1.73-8.77 0-6.12-2.41-8.67-2.21-2.34-5.58-2.34"></path><rect width="18.47" height="23.83" x="-9.23" y="-11.91" fill="none" rx="0" ry="0" transform="translate(214.93 500.26)"></rect><path fill="#8f8f8f" d="M236.92 510.345h-.11q-3.06 1.43-5.95 1.43-4.52 0-4.79-3.57-.03-.24-.03-.44 0-2.62 3.43-3.5 2.04-.44 7.34-1.06v-2.99q0-1.43-.34-2.45-.34-1.02-.74-1.51-.41-.49-1.06-.76-.81-.34-1.82-.34-1 0-2.29.51-1.87.78-3.33 1.97l-.14 2.65-.65.17v-4.11l.34-.14q2.66-1.16 4.05-1.39 1.39-.24 2.04-.26.65-.02 1.24.02.6.03 1.55.3.95.28 1.65.77.69.49 1.2 1.48.51.98.51 2.34v10.41q0 1.05.55 1.05l2.07.1-.03.51q-1.91.28-3.4.28-.41-.04-.85-.43t-.44-1.04m-5.44.89q2.51 0 5.33-1.77v-5.61q-5.1.17-6.4.59-1.31.43-1.81 1.33-.49.9-.49 1.79v.34q.1 1.76 1.05 2.55.96.78 2.32.78"></path><rect width="15.6" height="17.27" x="-7.8" y="-8.64" fill="none" rx="0" ry="0" transform="translate(234.34 503.68)"></rect><path fill="#8f8f8f" d="M248.92 511.235q.2 0 .41-.04 1.76-.03 2.95-1.1 1.19-1.07 1.19-3.15 0-2.04-3.19-2.95-1.33-.38-2.65-.82-1.33-.44-2.26-1.39-.94-.96-.94-2.49 0-2.17 1.67-3.48 1.66-1.31 4.21-1.31 1.91 0 3.84.68l.62.24v3.91l-.65.24-.14-2.89q-1.97-1.57-3.29-1.57-1.87 0-2.96 1.11-1.09 1.1-1.09 2.94 0 1.05.94 1.7.93.64 2.26 1.02 1.32.37 2.65.83 1.32.46 2.26 1.5.93 1.03.93 2.7 0 2.24-1.68 3.55-1.68 1.31-4.78 1.31-3.09 0-5.13-1.46v-3.91l.61-.24.17 2.89q.48.89 1.72 1.53 1.24.65 2.33.65"></path><rect width="11.59" height="17.27" x="-5.79" y="-8.63" fill="none" rx="0" ry="0" transform="translate(250.38 503.64)"></rect><path fill="#8f8f8f" d="M262.69 487.535v9.21q4.45-3.06 8.06-1.9.81.24 1.41.7.59.46 1.03 1.37.45.92.45 2.21v11.84l2.55.17q0 .03-.04.51l-6.8.03q0-.31.04-.48l1.76-.23q.21 0 .28-.31v-10.64q0-1.33-.36-2.3-.36-.97-.83-1.41-.48-.44-1.13-.68-.88-.34-1.56-.27-2.21.07-4.86 1.8v13.81l2.55.17q0 .03-.04.51l-6.8.03q0-.31.04-.48l1.77-.23q.27-.04.27-.48v-23.12q0-.37-.21-.37l-2.04-.07.04-.48q1.83-.3 2.79-.3.95 0 1.29.44.34.44.34.95"></path><rect width="17.96" height="25.53" x="-8.98" y="-12.77" fill="none" rx="0" ry="0" transform="translate(267.71 499.41)"></rect><path fill="#8f8f8f" d="M281.69 487.535v8.47q2.04-1.67 4.56-1.67 2.31 0 4.35 1.43 1.09.78 1.75 2.45.67 1.66.67 4.04 0 4.52-2.25 6.8-2.55 2.59-6.46 2.59-1.46 0-2.9-.24-1.45-.24-1.93-.55v-23.59q-.06-.27-.2-.27l-2.07-.07.03-.48q2.14-.3 2.94-.3.8 0 1.16.44.35.44.35.95m0 9.11v14.38q.92.31 2.15.31 3.33 0 5.15-2.35 1.82-2.34 1.82-6.56 0-4.62-1.84-6.22-1.43-1.26-3.3-1.26-1.87 0-3.98 1.7"></path><rect width="15.81" height="25.5" x="-7.91" y="-12.75" fill="none" rx="0" ry="0" transform="translate(285.62 499.4)"></rect><path fill="#8f8f8f" d="M303.68 511.775h-1.78q-1.78 0-3.97-2.04-2.19-2.04-2.19-6.24t2.33-6.59q2.32-2.4 5.86-2.4 3.54 0 5.75 2.04t2.21 6.24q0 4.2-2.33 6.59-2.33 2.4-5.88 2.4m.22-16.66h-1.28q-1.27 0-2.97 2.21-1.7 2.21-1.7 6t1.61 5.82q1.62 2.02 4.17 2.02t4.25-2.21q1.7-2.21 1.7-5.98 0-3.78-1.62-5.82-1.61-2.04-4.16-2.04"></path><rect width="16.15" height="17.27" x="-8.07" y="-8.63" fill="none" rx="0" ry="0" transform="translate(304.31 503.64)"></rect><path fill="#8f8f8f" d="M325.32 510.345h-.11q-3.06 1.43-5.95 1.43-4.52 0-4.79-3.57-.03-.24-.03-.44 0-2.62 3.43-3.5 2.04-.44 7.34-1.06v-2.99q0-1.43-.34-2.45-.34-1.02-.74-1.51-.41-.49-1.06-.76-.81-.34-1.82-.34-1 0-2.29.51-1.87.78-3.33 1.97l-.14 2.65-.65.17v-4.11l.34-.14q2.66-1.16 4.05-1.39 1.39-.24 2.04-.26.65-.02 1.24.02.6.03 1.55.3.95.28 1.65.77.69.49 1.2 1.48.51.98.51 2.34v10.41q0 1.05.55 1.05l2.07.1-.03.51q-1.91.28-3.4.28-.41-.04-.85-.43t-.44-1.04m-5.44.89q2.51 0 5.33-1.77v-5.61q-5.1.17-6.4.59-1.31.43-1.81 1.33-.49.9-.49 1.79v.34q.1 1.76 1.05 2.55.96.78 2.32.78"></path><rect width="15.6" height="17.27" x="-7.8" y="-8.64" fill="none" rx="0" ry="0" transform="translate(322.74 503.68)"></rect><path fill="#8f8f8f" d="M335.52 496.035v2.72q2.68-3.94 5.27-4.01h.4l1.91.24-.89 2.04q-.64-.65-1.66-.65-2.48.03-5.03 3.3v11.29l2.89.17q0 .03-.04.51l-7.14.03q0-.31.04-.48l1.76-.23q.28-.04.28-.48v-14.76q-.07-.23-.21-.23l-2.04-.07.04-.48q1.83-.3 2.78-.3.96 0 1.3.44.34.44.34.95"></path><rect width="12.04" height="17.03" x="-6.02" y="-8.52" fill="none" rx="0" ry="0" transform="translate(337.58 503.66)"></rect><path fill="#8f8f8f" d="M358.02 487.535v22.34q0 1.05.55 1.05l2.04.1-.04.51q-1.63.28-3.4.28-.37-.04-.79-.38-.43-.34-.5-.88-1.94 1.22-4.49 1.22-2.48 0-4.59-1.39-1.19-.78-1.92-2.47-.73-1.68-.73-4.09 0-4.46 2.28-6.8 2.41-2.52 5.51-2.52 1.9 0 3.87.99v-8.13q0-.37-.2-.37l-2.07-.07.03-.48q2.14-.3 2.94-.3.8 0 1.16.44.35.44.35.95m-6.18 23.63q2.07 0 3.97-.92v-14.21q-1.49-.92-2.95-.92-2.93 0-4.71 2.25-1.79 2.24-1.79 6.42 0 7.38 5.48 7.38"></path><rect width="16.46" height="25.67" x="-8.23" y="-12.84" fill="none" rx="0" ry="0" transform="translate(352.88 499.48)"></rect></svg></svg>